solid OpenSCAD_Model
	facet normal 0.0 0.850650808352 0.525731112119
		outer loop
			vertex -16.1803398875 -16.1803398875 10.0
			vertex -10.0 -26.1803398875 26.1803398875
			vertex 10.0 -26.1803398875 26.1803398875
		endloop
	endfacet
	facet normal -0.0 0.850650808352 0.525731112119
		outer loop
			vertex -16.1803398875 -16.1803398875 10.0
			vertex 10.0 -26.1803398875 26.1803398875
			vertex 16.1803398875 -16.1803398875 10.0
		endloop
	endfacet
	facet normal -0.0 0.850650808352 0.525731112119
		outer loop
			vertex -16.1803398875 -16.1803398875 10.0
			vertex 16.1803398875 -16.1803398875 10.0
			vertex 0 -10.0 0.0
		endloop
	endfacet
	facet normal -0.850650808352 0.525731112119 0.0
		outer loop
			vertex 16.1803398875 -16.1803398875 10.0
			vertex 10.0 -26.1803398875 26.1803398875
			vertex 16.1803398875 -16.1803398875 42.360679775
		endloop
	endfacet
	facet normal -0.850650808352 0.525731112119 0.0
		outer loop
			vertex 16.1803398875 -16.1803398875 10.0
			vertex 16.1803398875 -16.1803398875 42.360679775
			vertex 26.1803398875 0 36.1803398875
		endloop
	endfacet
	facet normal -0.850650808352 0.525731112119 0.0
		outer loop
			vertex 16.1803398875 -16.1803398875 10.0
			vertex 26.1803398875 0 36.1803398875
			vertex 26.1803398875 0 16.1803398875
		endloop
	endfacet
	facet normal -0.525731112119 0.0 0.850650808352
		outer loop
			vertex 0 -10.0 0.0
			vertex 16.1803398875 -16.1803398875 10.0
			vertex 26.1803398875 0 16.1803398875
		endloop
	endfacet
	facet normal -0.525731112119 0.0 0.850650808352
		outer loop
			vertex 0 -10.0 0.0
			vertex 26.1803398875 0 16.1803398875
			vertex 16.1803398875 16.1803398875 10.0
		endloop
	endfacet
	facet normal -0.525731112119 0.0 0.850650808352
		outer loop
			vertex 0 -10.0 0.0
			vertex 16.1803398875 16.1803398875 10.0
			vertex 0 10.0 0.0
		endloop
	endfacet
	facet normal 0.525731112119 0.0 0.850650808352
		outer loop
			vertex -16.1803398875 -16.1803398875 10.0
			vertex 0 -10.0 0.0
			vertex 0 10.0 0.0
		endloop
	endfacet
	facet normal 0.525731112119 -0.0 0.850650808352
		outer loop
			vertex -16.1803398875 -16.1803398875 10.0
			vertex 0 10.0 0.0
			vertex -16.1803398875 16.1803398875 10.0
		endloop
	endfacet
	facet normal 0.525731112119 -0.0 0.850650808352
		outer loop
			vertex -16.1803398875 -16.1803398875 10.0
			vertex -16.1803398875 16.1803398875 10.0
			vertex -26.1803398875 0 16.1803398875
		endloop
	endfacet
	facet normal 0.850650808352 0.525731112119 0.0
		outer loop
			vertex 26.1803398875 0 36.1803398875
			vertex 26.1803398875 0 16.1803398875
			vertex 16.1803398875 16.1803398875 10.0
		endloop
	endfacet
	facet normal 0.850650808352 0.525731112119 0.0
		outer loop
			vertex 26.1803398875 0 36.1803398875
			vertex 16.1803398875 16.1803398875 10.0
			vertex 10.0 26.1803398875 26.1803398875
		endloop
	endfacet
	facet normal 0.850650808352 0.525731112119 0.0
		outer loop
			vertex 26.1803398875 0 36.1803398875
			vertex 10.0 26.1803398875 26.1803398875
			vertex 16.1803398875 16.1803398875 42.360679775
		endloop
	endfacet
	facet normal 7.47108845359e-17 0.850650808352 -0.525731112119
		outer loop
			vertex 0 10.0 0.0
			vertex -16.1803398875 16.1803398875 10.0
			vertex -10.0 26.1803398875 26.1803398875
		endloop
	endfacet
	facet normal 0.0 0.850650808352 -0.525731112119
		outer loop
			vertex 0 10.0 0.0
			vertex -10.0 26.1803398875 26.1803398875
			vertex 10.0 26.1803398875 26.1803398875
		endloop
	endfacet
	facet normal -7.47108845359e-17 0.850650808352 -0.525731112119
		outer loop
			vertex 0 10.0 0.0
			vertex 10.0 26.1803398875 26.1803398875
			vertex 16.1803398875 16.1803398875 10.0
		endloop
	endfacet
	facet normal 0.0 -0.850650808352 -0.525731112119
		outer loop
			vertex -10.0 26.1803398875 26.1803398875
			vertex 10.0 26.1803398875 26.1803398875
			vertex 16.1803398875 16.1803398875 42.360679775
		endloop
	endfacet
	facet normal 0.0 -0.850650808352 -0.525731112119
		outer loop
			vertex -10.0 26.1803398875 26.1803398875
			vertex 16.1803398875 16.1803398875 42.360679775
			vertex 0 10.0 52.360679775
		endloop
	endfacet
	facet normal 0.0 -0.850650808352 -0.525731112119
		outer loop
			vertex -10.0 26.1803398875 26.1803398875
			vertex 0 10.0 52.360679775
			vertex -16.1803398875 16.1803398875 42.360679775
		endloop
	endfacet
	facet normal 0.850650808352 -0.525731112119 7.47108845359e-17
		outer loop
			vertex -10.0 26.1803398875 26.1803398875
			vertex -16.1803398875 16.1803398875 42.360679775
			vertex -26.1803398875 0 36.1803398875
		endloop
	endfacet
	facet normal 0.850650808352 -0.525731112119 0.0
		outer loop
			vertex -10.0 26.1803398875 26.1803398875
			vertex -26.1803398875 0 36.1803398875
			vertex -26.1803398875 0 16.1803398875
		endloop
	endfacet
	facet normal 0.850650808352 -0.525731112119 -7.47108845359e-17
		outer loop
			vertex -10.0 26.1803398875 26.1803398875
			vertex -26.1803398875 0 16.1803398875
			vertex -16.1803398875 16.1803398875 10.0
		endloop
	endfacet
	facet normal -0.525731112119 0.0 0.850650808352
		outer loop
			vertex -16.1803398875 16.1803398875 42.360679775
			vertex -26.1803398875 0 36.1803398875
			vertex -16.1803398875 -16.1803398875 42.360679775
		endloop
	endfacet
	facet normal -0.525731112119 0.0 0.850650808352
		outer loop
			vertex -16.1803398875 16.1803398875 42.360679775
			vertex -16.1803398875 -16.1803398875 42.360679775
			vertex 0 -10.0 52.360679775
		endloop
	endfacet
	facet normal -0.525731112119 0.0 0.850650808352
		outer loop
			vertex -16.1803398875 16.1803398875 42.360679775
			vertex 0 -10.0 52.360679775
			vertex 0 10.0 52.360679775
		endloop
	endfacet
	facet normal 0.850650808352 0.525731112119 -0.0
		outer loop
			vertex -26.1803398875 0 16.1803398875
			vertex -26.1803398875 0 36.1803398875
			vertex -16.1803398875 -16.1803398875 42.360679775
		endloop
	endfacet
	facet normal 0.850650808352 0.525731112119 0.0
		outer loop
			vertex -26.1803398875 0 16.1803398875
			vertex -16.1803398875 -16.1803398875 42.360679775
			vertex -10.0 -26.1803398875 26.1803398875
		endloop
	endfacet
	facet normal 0.850650808352 0.525731112119 0.0
		outer loop
			vertex -26.1803398875 0 16.1803398875
			vertex -10.0 -26.1803398875 26.1803398875
			vertex -16.1803398875 -16.1803398875 10.0
		endloop
	endfacet
	facet normal -0.525731112119 1.49421769072e-16 -0.850650808352
		outer loop
			vertex 0 10.0 52.360679775
			vertex 16.1803398875 16.1803398875 42.360679775
			vertex 26.1803398875 0 36.1803398875
		endloop
	endfacet
	facet normal -0.525731112119 -9.23477319455e-17 -0.850650808352
		outer loop
			vertex 0 10.0 52.360679775
			vertex 26.1803398875 0 36.1803398875
			vertex 16.1803398875 -16.1803398875 42.360679775
		endloop
	endfacet
	facet normal -0.525731112119 -0.0 -0.850650808352
		outer loop
			vertex 0 10.0 52.360679775
			vertex 16.1803398875 -16.1803398875 42.360679775
			vertex 0 -10.0 52.360679775
		endloop
	endfacet
	facet normal 0.0 0.850650808352 -0.525731112119
		outer loop
			vertex -16.1803398875 -16.1803398875 42.360679775
			vertex 0 -10.0 52.360679775
			vertex 16.1803398875 -16.1803398875 42.360679775
		endloop
	endfacet
	facet normal 0.0 0.850650808352 -0.525731112119
		outer loop
			vertex -16.1803398875 -16.1803398875 42.360679775
			vertex 16.1803398875 -16.1803398875 42.360679775
			vertex 10.0 -26.1803398875 26.1803398875
		endloop
	endfacet
	facet normal 0.0 0.850650808352 -0.525731112119
		outer loop
			vertex -16.1803398875 -16.1803398875 42.360679775
			vertex 10.0 -26.1803398875 26.1803398875
			vertex -10.0 -26.1803398875 26.1803398875
		endloop
	endfacet
endsolid OpenSCAD_Model